<svg xmlns="http://www.w3.org/2000/svg" width="1024" height="1024" viewBox="0 0 1024 1024" fill="none"><script xmlns=""/>
<g clip-path="url(#clip0_54_63)">
<path d="M512 0C376.209 0 245.98 53.9427 149.961 149.961C53.9427 245.98 0 376.209 0 512C0 647.791 53.9427 778.02 149.961 874.039C245.98 970.057 376.209 1024 512 1024C647.791 1024 778.02 970.057 874.039 874.039C970.057 778.02 1024 647.791 1024 512C1024 376.209 970.057 245.98 874.039 149.961C778.02 53.9427 647.791 0 512 0Z" fill="#FF3D00"/>
<path d="M692.844 236.366H469.997L438.062 364.424H341.832L301.368 526.868C300.11 531.891 300.011 537.134 301.08 542.201C302.149 547.268 304.357 552.025 307.537 556.111C310.717 560.198 314.786 563.508 319.434 565.789C324.083 568.07 329.19 569.263 334.368 569.278H415.831L339.407 876.12L599.147 601.32C619.699 579.568 604.345 543.688 574.49 543.688H450.27L488.523 390.014H698.123L725.792 278.804C727.055 273.781 727.157 268.537 726.092 263.469C725.027 258.4 722.822 253.641 719.644 249.551C716.467 245.462 712.4 242.149 707.752 239.865C703.104 237.58 697.997 236.384 692.818 236.366H692.844Z" fill="white"/>
</g>
<defs>
<clipPath id="clip0_54_63">
<rect width="1024" height="1024" fill="white"/>
</clipPath>
</defs>
</svg>
