<svg xmlns="http://www.w3.org/2000/svg" xml:space="preserve" version="1.0" viewBox="155 48 489 489"><path d="M399.6 48.5h.4c134.9 0 244.3 109.4 244.3 244.3v13.6c0 134.9-109.4 244.3-244.3 244.3h-.4c-134.9 0-244.3-109.4-244.3-244.3v-13.6c0-134.9 109.4-244.3 244.3-244.3" style="fill:#232323"/><linearGradient id="a" x1="300.549" x2="547.984" y1="184.631" y2="425.529" gradientTransform="matrix(1 0 0 -1 -20.945 604.362)" gradientUnits="userSpaceOnUse"><stop offset="0" style="stop-color:#cf41e8"/><stop offset="1" style="stop-color:#10f2b0"/></linearGradient><path d="M504.3 237.5c-.8.9-1.8 1.6-2.9 2-1.1.5-2.3.7-3.5.7H271.4c-8 0-12.1-10-6.5-16l37.2-39.5q1.2-1.35 3-2.1c1.1-.5 2.3-.7 3.5-.7H536c8.1 0 12.1 10.1 6.4 16.1zm0 176.6c-1.7 1.7-4 2.7-6.4 2.7H271.4c-8 0-12.1-9.8-6.5-15.6l37.2-38.6c.8-.9 1.9-1.6 3-2 1.1-.5 2.3-.7 3.5-.7H536c8.1 0 12.1 9.9 6.4 15.7zm0-140.5c-1.7-1.7-4-2.7-6.4-2.7H271.4c-8 0-12.1 9.8-6.5 15.6l37.2 38.6c.8.9 1.9 1.6 3 2 1.1.5 2.3.7 3.5.7H536c8.1 0 12.1-9.9 6.4-15.7z" style="fill:url(#a)"/></svg>